<svg id="visual" viewBox="0 0 2200 500" width="2200" height="500" xmlns="http://www.w3.org/2000/svg" xmlns:xlink="http://www.w3.org/1999/xlink" version="1.1"><rect x="0" y="0" width="2200" height="500" fill="#E53516"></rect><path d="M0 395L28.2 402.7C56.3 410.3 112.7 425.7 169 431.3C225.3 437 281.7 433 338.2 426C394.7 419 451.3 409 507.8 413.2C564.3 417.3 620.7 435.7 677 433.7C733.3 431.7 789.7 409.3 846 402C902.3 394.7 958.7 402.3 1015.2 406.3C1071.7 410.3 1128.3 410.7 1184.8 417.3C1241.3 424 1297.7 437 1354 437.3C1410.3 437.7 1466.7 425.3 1523 417.7C1579.3 410 1635.7 407 1692.2 405C1748.7 403 1805.3 402 1861.8 409.7C1918.3 417.3 1974.7 433.7 2031 442.8C2087.3 452 2143.7 454 2171.8 455L2200 456L2200 501L2171.8 501C2143.7 501 2087.3 501 2031 501C1974.7 501 1918.3 501 1861.8 501C1805.3 501 1748.7 501 1692.2 501C1635.7 501 1579.3 501 1523 501C1466.7 501 1410.3 501 1354 501C1297.7 501 1241.3 501 1184.8 501C1128.3 501 1071.7 501 1015.2 501C958.7 501 902.3 501 846 501C789.7 501 733.3 501 677 501C620.7 501 564.3 501 507.8 501C451.3 501 394.7 501 338.2 501C281.7 501 225.3 501 169 501C112.7 501 56.3 501 28.2 501L0 501Z" fill="#ffffff" stroke-linecap="round" stroke-linejoin="miter"></path></svg>