<svg id="visual" viewBox="0 0 5000 1700" width="5000" height="1700" xmlns="http://www.w3.org/2000/svg" xmlns:xlink="http://www.w3.org/1999/xlink" version="1.1"><rect x="0" y="0" width="5000" height="1700" fill="#ffffff"></rect><path d="M0 1340L119 1306.8C238 1273.7 476 1207.3 714.2 1199C952.3 1190.7 1190.7 1240.3 1428.8 1283.7C1667 1327 1905 1364 2143 1332.2C2381 1300.3 2619 1199.7 2857 1199C3095 1198.3 3333 1297.7 3571.2 1292.8C3809.3 1288 4047.7 1179 4285.8 1162C4524 1145 4762 1220 4881 1257.5L5000 1295L5000 1701L4881 1701C4762 1701 4524 1701 4285.8 1701C4047.7 1701 3809.3 1701 3571.2 1701C3333 1701 3095 1701 2857 1701C2619 1701 2381 1701 2143 1701C1905 1701 1667 1701 1428.8 1701C1190.7 1701 952.3 1701 714.2 1701C476 1701 238 1701 119 1701L0 1701Z" fill="#E53516" stroke-linecap="round" stroke-linejoin="miter"></path></svg>