
   <svg xmlns="http://www.w3.org/2000/svg" width="100" height="78" viewBox="0 0 100 70.833">
    <g id="Group_78" data-name="Group 78" transform="translate(-268 -3382.052)">
      <g id="Group_77" data-name="Group 77">
        <g id="Group_71" data-name="Group 71">
          <g id="Group_70" data-name="Group 70">
            <g id="Group_69" data-name="Group 69">
              <g id="Group_68" data-name="Group 68">
                <path id="Path_91" data-name="Path 91" d="M315.143,3390.709h-1.969a14.526,14.526,0,0,0-11.418,5.481l-.146.187c-.2.243-.385.512-.545.743l-.067.1-.1.071a2.127,2.127,0,0,1-1.285.426,2.064,2.064,0,0,1-1.263-.422l-.067-.052-.052-.068-.094-.115-.089-.094-.049-.052-.037-.056a1.772,1.772,0,0,0-.116-.161l-.019-.022-.033-.049-.03-.03-.053-.086-.018-.029-.011-.012-.045-.052-.03-.041-.038-.045a14.551,14.551,0,0,0-11.533-5.623h-1.973A16.083,16.083,0,0,0,268,3406.771v14.9a23.046,23.046,0,0,0,23.018,23.018,1.278,1.278,0,0,0,0-2.556,20.486,20.486,0,0,1-20.466-20.462v-14.9a13.527,13.527,0,0,1,13.513-13.506h1.973a12.04,12.04,0,0,1,9.441,4.532l.011.015.012.015.086.115.018.03.019.034a4.413,4.413,0,0,0,.534.725l.015.015.008.011.011.007.075.083.048.048a4.66,4.66,0,0,0,3.307,1.383,4.735,4.735,0,0,0,1.849-.378l.037-.019.041-.011a1.462,1.462,0,0,0,.311-.16l.048-.034.023-.015.022-.015a3.639,3.639,0,0,0,.523-.407l.007-.008.008,0a8.347,8.347,0,0,0,.725-.744l.089-.1.012,0,.007-.008.03-.037c.093-.108.191-.224.273-.329l.007-.011.008-.011c.153-.183.31-.393.515-.673l.049-.063.022-.03.023-.026a11.938,11.938,0,0,1,8.922-3.923h1.969a13.523,13.523,0,0,1,13.506,13.506v14.855l0,.086,0,.018v.019a20.9,20.9,0,0,1-41.789.235v-.089l.008-.673A13.362,13.362,0,1,1,300.2,3435a1.276,1.276,0,1,0,.023,2.552,15.916,15.916,0,1,0-15.909-16.383v.022c0,.064,0,.123,0,.187v.071c0,.063,0,.123,0,.19,0,.041,0,.09,0,.127v.154c0,.052,0,.1,0,.149v.041a23.447,23.447,0,0,0,46.889-.471v-14.873A16.083,16.083,0,0,0,315.143,3390.709Z" fill="#e53516"/>
                <path id="Path_92" data-name="Path 92" d="M299.8,3396.957a1.449,1.449,0,0,0,.253-.053A1.382,1.382,0,0,1,299.8,3396.957Zm-.672-.078a1.164,1.164,0,0,1-.225-.11A1.193,1.193,0,0,0,299.127,3396.879Zm.672.078c-.038,0-.077.007-.115.009C299.723,3396.964,299.761,3396.962,299.8,3396.957Zm-.281.007c-.029,0-.058,0-.087-.005C299.46,3396.963,299.489,3396.962,299.518,3396.964Zm-.313-.057c-.027-.008-.052-.018-.078-.028C299.153,3396.889,299.178,3396.9,299.2,3396.907Zm.41.064c.023,0,.046,0,.069,0a1.566,1.566,0,0,1-.166,0C299.551,3396.967,299.583,3396.971,299.615,3396.971Zm-.184-.012a1.431,1.431,0,0,1-.226-.052A1.457,1.457,0,0,0,299.431,3396.959Z" fill="#e53516"/>
              </g>
            </g>
          </g>
        </g>
        <path id="Path_93" data-name="Path 93" d="M356.728,3417.868" fill="#e53516"/>
        <g id="Group_75" data-name="Group 75">
          <g id="Group_72" data-name="Group 72">
            <rect id="Rectangle_25" data-name="Rectangle 25" width="22.199" height="1.547" transform="translate(345.611 3417.166)" fill="#e53516"/>
            <path id="Path_94" data-name="Path 94" d="M345.422,3416.975v1.926H368v-1.926Zm22.2,1.546H345.8v-1.166H367.62Z" fill="#e53516"/>
          </g>
          <g id="Group_73" data-name="Group 73">
            <rect id="Rectangle_26" data-name="Rectangle 26" width="22.363" height="1.547" transform="matrix(0.983, -0.185, 0.185, 0.983, 345.469, 3400.12)" fill="#e53516"/>
            <path id="Path_95" data-name="Path 95" d="M367.6,3395.767l-22.353,4.2.358,1.893,22.348-4.2Zm-.3.444.219,1.15-21.609,4.058-.214-1.149Z" fill="#e53516"/>
          </g>
          <g id="Group_74" data-name="Group 74">
            <rect id="Rectangle_27" data-name="Rectangle 27" width="1.547" height="22.363" transform="translate(345.469 3435.745) rotate(-79.361)" fill="#e53516"/>
            <path id="Path_96" data-name="Path 96" d="M345.6,3434l-.358,1.893,22.353,4.2.353-1.893Zm.086,1.594.214-1.15,21.609,4.059-.219,1.15Z" fill="#e53516"/>
          </g>
        </g>
        <g id="Group_76" data-name="Group 76">
          <path id="Path_97" data-name="Path 97" d="M339.118,3383.62v67.7a1.566,1.566,0,0,1-2.161,1.448h0l-17.005-6.963c.064-.042.128-.085.187-.128s.123-.091.182-.128c.486-.359.946-.717,1.369-1.075.053-.048.112-.091.166-.139s.107-.091.16-.139l12.149,4.961a1.941,1.941,0,0,0,2.675-1.8v-59.587a1.942,1.942,0,0,0-2.749-1.765l-8.658,3.962c-.053-.048-.1-.1-.15-.139a1.9,1.9,0,0,0-.144-.139,12.743,12.743,0,0,0-1.3-1.08c-.059-.048-.117-.086-.176-.128s-.123-.081-.182-.123L336.9,3382.2A1.566,1.566,0,0,1,339.118,3383.62Z" fill="#e53516"/>
        </g>
        <path id="Path_98" data-name="Path 98" d="M317.733,3447.377" fill="#e53516"/>
      </g>
    </g>
  </svg>
  


