<svg xmlns="http://www.w3.org/2000/svg" width="71.771" height="78" viewBox="0 0 71.771 81.717">
  <g id="Group_65" data-name="Group 65" transform="translate(-817.5 -3784.283)">
    <g id="Group_64" data-name="Group 64">
      <g id="Group_63" data-name="Group 63">
        <g id="Group_62" data-name="Group 62">
          <g id="Group_61" data-name="Group 61">
            <path id="Path_85" data-name="Path 85" d="M871.029,3784.283h-2.236a16.491,16.491,0,0,0-12.964,6.223l-.166.212c-.224.276-.436.581-.619.844l-.076.115-.111.081a2.425,2.425,0,0,1-1.459.483,2.348,2.348,0,0,1-1.434-.479l-.076-.06-.06-.076-.106-.132-.1-.106-.056-.059-.042-.064a1.764,1.764,0,0,0-.132-.182l-.021-.025-.038-.056-.034-.034-.059-.1-.021-.034-.013-.013-.051-.059-.034-.047-.042-.051a16.524,16.524,0,0,0-13.1-6.384h-2.24A18.261,18.261,0,0,0,817.5,3802.52v16.918a26.168,26.168,0,0,0,26.137,26.137,1.451,1.451,0,0,0,0-2.9,23.262,23.262,0,0,1-23.239-23.235V3802.52a15.359,15.359,0,0,1,15.344-15.336h2.24a13.672,13.672,0,0,1,10.72,5.146l.013.017.012.017.1.132.021.034.021.038a5.032,5.032,0,0,0,.607.823l.017.017.008.012.013.009.085.093.055.055a5.291,5.291,0,0,0,3.755,1.57,5.38,5.38,0,0,0,2.1-.428l.043-.022.047-.012a1.626,1.626,0,0,0,.352-.183l.055-.038.025-.017.026-.017a4.13,4.13,0,0,0,.594-.462l.008-.009.009,0a9.549,9.549,0,0,0,.823-.844l.1-.119.013,0,.009-.009.034-.042c.106-.123.216-.255.309-.373l.009-.013.008-.013c.174-.208.352-.445.586-.764l.055-.072.025-.034.026-.029a13.557,13.557,0,0,1,10.13-4.455h2.236a15.355,15.355,0,0,1,15.336,15.336v16.867l0,.1,0,.021v.021a23.727,23.727,0,0,1-47.45.268v-.1l.009-.764a15.172,15.172,0,1,1,15.136,15.65,1.449,1.449,0,1,0,.026,2.9,18.072,18.072,0,1,0-18.064-18.6v.025c0,.073,0,.14,0,.213v.08c0,.072,0,.14,0,.217,0,.046,0,.1,0,.144v.174c0,.059,0,.119,0,.169v.047a26.623,26.623,0,0,0,53.241-.534V3802.52A18.262,18.262,0,0,0,871.029,3784.283Z" fill="#e53516"/>
            <path id="Path_86" data-name="Path 86" d="M853.607,3791.377a1.638,1.638,0,0,0,.287-.061A1.554,1.554,0,0,1,853.607,3791.377Zm-.763-.089a1.418,1.418,0,0,1-.256-.124A1.387,1.387,0,0,0,852.844,3791.288Zm.763.089c-.044.005-.087.008-.131.01C853.52,3791.385,853.563,3791.382,853.607,3791.377Zm-.319.008c-.033,0-.066,0-.1-.006C853.222,3791.383,853.255,3791.383,853.288,3791.385Zm-.356-.065c-.03-.009-.059-.02-.088-.032C852.873,3791.3,852.9,3791.311,852.932,3791.32Zm.466.073c.026,0,.052-.005.078-.006a1.507,1.507,0,0,1-.188,0C853.325,3791.388,853.361,3791.393,853.4,3791.393Zm-.209-.014a1.6,1.6,0,0,1-.257-.059A1.629,1.629,0,0,0,853.189,3791.379Z" fill="#e53516"/>
          </g>
        </g>
      </g>
    </g>
    <path id="Path_87" data-name="Path 87" d="M867.536,3866h-28.3a3.495,3.495,0,1,1,0-6.989h5.349v-7.738h17.6v7.738h5.349a3.495,3.495,0,1,1,0,6.989Zm-28.3-4.824a1.329,1.329,0,1,0,0,2.659h28.3a1.329,1.329,0,1,0,0-2.659h-7.515v-7.738H846.75v7.738Z" fill="#e53516"/>
  </g>
</svg>
