<svg width="107" height="24" viewBox="0 0 107 24" fill="none" xmlns="http://www.w3.org/2000/svg" style="width: 125px; height: 50px; margin-bottom: 10px;"><path d="M7.872 21.192C6.512 21.192 5.288 20.912 4.2 20.352C3.128 19.776 2.288 18.984 1.68 17.976C1.072 16.968 0.768 15.824 0.768 14.544C0.768 13.264 1.072 12.12 1.68 11.112C2.288 10.104 3.128 9.32 4.2 8.76C5.288 8.184 6.512 7.896 7.872 7.896C9.232 7.896 10.448 8.184 11.52 8.76C12.592 9.32 13.432 10.104 14.04 11.112C14.648 12.12 14.952 13.264 14.952 14.544C14.952 15.824 14.648 16.968 14.04 17.976C13.432 18.984 12.592 19.776 11.52 20.352C10.448 20.912 9.232 21.192 7.872 21.192ZM7.872 18.12C8.832 18.12 9.616 17.8 10.224 17.16C10.848 16.504 11.16 15.632 11.16 14.544C11.16 13.456 10.848 12.592 10.224 11.952C9.616 11.296 8.832 10.968 7.872 10.968C6.912 10.968 6.12 11.296 5.496 11.952C4.872 12.592 4.56 13.456 4.56 14.544C4.56 15.632 4.872 16.504 5.496 17.16C6.12 17.8 6.912 18.12 7.872 18.12ZM21.0306 9.792C21.4786 9.168 22.0786 8.696 22.8306 8.376C23.5986 8.056 24.4786 7.896 25.4706 7.896V11.352C25.0546 11.32 24.7746 11.304 24.6306 11.304C23.5586 11.304 22.7186 11.608 22.1106 12.216C21.5026 12.808 21.1986 13.704 21.1986 14.904V21H17.4546V8.088H21.0306V9.792ZM40.7316 3.192V21H37.1556V19.512C36.2276 20.632 34.8836 21.192 33.1236 21.192C31.9076 21.192 30.8036 20.92 29.8116 20.376C28.8356 19.832 28.0676 19.056 27.5076 18.048C26.9476 17.04 26.6676 15.872 26.6676 14.544C26.6676 13.216 26.9476 12.048 27.5076 11.04C28.0676 10.032 28.8356 9.256 29.8116 8.712C30.8036 8.168 31.9076 7.896 33.1236 7.896C34.7716 7.896 36.0596 8.416 36.9876 9.456V3.192H40.7316ZM33.7716 18.12C34.7156 18.12 35.4996 17.8 36.1236 17.16C36.7476 16.504 37.0596 15.632 37.0596 14.544C37.0596 13.456 36.7476 12.592 36.1236 11.952C35.4996 11.296 34.7156 10.968 33.7716 10.968C32.8116 10.968 32.0196 11.296 31.3956 11.952C30.7716 12.592 30.4596 13.456 30.4596 14.544C30.4596 15.632 30.7716 16.504 31.3956 17.16C32.0196 17.8 32.8116 18.12 33.7716 18.12ZM49.4048 7.896C51.4048 7.896 52.9408 8.376 54.0128 9.336C55.0848 10.28 55.6208 11.712 55.6208 13.632V21H52.1168V19.392C51.4128 20.592 50.1008 21.192 48.1808 21.192C47.1888 21.192 46.3248 21.024 45.5888 20.688C44.8688 20.352 44.3168 19.888 43.9328 19.296C43.5488 18.704 43.3568 18.032 43.3568 17.28C43.3568 16.08 43.8048 15.136 44.7008 14.448C45.6128 13.76 47.0128 13.416 48.9008 13.416H51.8768C51.8768 12.6 51.6288 11.976 51.1328 11.544C50.6368 11.096 49.8928 10.872 48.9008 10.872C48.2128 10.872 47.5328 10.984 46.8608 11.208C46.2048 11.416 45.6448 11.704 45.1808 12.072L43.8368 9.456C44.5408 8.96 45.3808 8.576 46.3568 8.304C47.3488 8.032 48.3648 7.896 49.4048 7.896ZM49.1168 18.672C49.7568 18.672 50.3248 18.528 50.8208 18.24C51.3168 17.936 51.6688 17.496 51.8768 16.92V15.6H49.3088C47.7728 15.6 47.0048 16.104 47.0048 17.112C47.0048 17.592 47.1888 17.976 47.5568 18.264C47.9408 18.536 48.4608 18.672 49.1168 18.672ZM66.6413 7.896C67.8413 7.896 68.9293 8.176 69.9053 8.736C70.8973 9.28 71.6733 10.056 72.2333 11.064C72.7933 12.056 73.0733 13.216 73.0733 14.544C73.0733 15.872 72.7933 17.04 72.2333 18.048C71.6733 19.04 70.8973 19.816 69.9053 20.376C68.9293 20.92 67.8413 21.192 66.6413 21.192C64.8653 21.192 63.5133 20.632 62.5853 19.512V21H59.0093V3.192H62.7533V9.456C63.6973 8.416 64.9933 7.896 66.6413 7.896ZM65.9933 18.12C66.9533 18.12 67.7373 17.8 68.3453 17.16C68.9693 16.504 69.2812 15.632 69.2812 14.544C69.2812 13.456 68.9693 12.592 68.3453 11.952C67.7373 11.296 66.9533 10.968 65.9933 10.968C65.0333 10.968 64.2413 11.296 63.6172 11.952C63.0093 12.592 62.7053 13.456 62.7053 14.544C62.7053 15.632 63.0093 16.504 63.6172 17.16C64.2413 17.8 65.0333 18.12 65.9933 18.12ZM75.5796 3.192H79.3236V21H75.5796V3.192ZM95.4463 14.592C95.4463 14.64 95.4223 14.976 95.3743 15.6H85.6063C85.7823 16.4 86.1983 17.032 86.8543 17.496C87.5103 17.96 88.3263 18.192 89.3023 18.192C89.9743 18.192 90.5663 18.096 91.0783 17.904C91.6063 17.696 92.0943 17.376 92.5423 16.944L94.5343 19.104C93.3183 20.496 91.5423 21.192 89.2063 21.192C87.7503 21.192 86.4623 20.912 85.3423 20.352C84.2223 19.776 83.3583 18.984 82.7503 17.976C82.1423 16.968 81.8383 15.824 81.8383 14.544C81.8383 13.28 82.1343 12.144 82.7263 11.136C83.3343 10.112 84.1583 9.32 85.1983 8.76C86.2543 8.184 87.4303 7.896 88.7263 7.896C89.9903 7.896 91.1343 8.168 92.1583 8.712C93.1823 9.256 93.9823 10.04 94.5583 11.064C95.1503 12.072 95.4463 13.248 95.4463 14.592ZM88.7503 10.728C87.9023 10.728 87.1903 10.968 86.6143 11.448C86.0383 11.928 85.6863 12.584 85.5583 13.416H91.9183C91.7903 12.6 91.4383 11.952 90.8623 11.472C90.2863 10.976 89.5823 10.728 88.7503 10.728ZM103.339 0.791998H106.675L98.7549 23.4H95.4189L103.339 0.791998Z" fill="white"></path></svg>