<svg id="visual" viewBox="0 0 900 600" width="900" height="600" xmlns="http://www.w3.org/2000/svg" xmlns:xlink="http://www.w3.org/1999/xlink" version="1.1"><rect x="0" y="0" width="900" height="600" fill="#ffffff"></rect><path d="M0 9L37.5 41.3C75 73.7 150 138.3 225 160.5C300 182.7 375 162.3 450 223.7C525 285 600 428 675 500.8C750 573.7 825 576.3 862.5 577.7L900 579L900 0L862.5 0C825 0 750 0 675 0C600 0 525 0 450 0C375 0 300 0 225 0C150 0 75 0 37.5 0L0 0Z" fill="#E53516" stroke-linecap="round" stroke-linejoin="miter"></path></svg>