<svg xmlns="http://www.w3.org/2000/svg" xmlns:xlink="http://www.w3.org/1999/xlink" width="1942.5" height="1687" viewBox="0 0 1942.5 1687">
  <defs>
    <clipPath id="clip-path">
      <rect id="Rectangle_2" data-name="Rectangle 2" width="1942" height="1357" transform="translate(1942 1357) rotate(180)" fill="none"/>
    </clipPath>
    <clipPath id="clip-path-2">
      <rect id="Rectangle_3" data-name="Rectangle 3" width="1942" height="1326" fill="none"/>
    </clipPath>
  </defs>
  <g id="Group_5" data-name="Group 5">
    <g id="Group_4" data-name="Group 4" clip-path="url(#clip-path)">
      <g id="Group_3" data-name="Group 3" transform="translate(-440.098 167.669)">
        <g id="Group_1" data-name="Group 1">
          <path id="Path_1" data-name="Path 1" d="M-444,5348.36V4307.654l105.512-53.544H303.448c54.36,24.589,106.423,47.608,177.688,54.238l88.707-.16c62.3-5.328,112.149-20.243,159.427-38.02q4.7-1.762,9.369-3.566c7.1-2.733,14.154-5.531,21.206-8.36q5.129-2.049,10.249-4.132h621.458q28.834,12.332,59.165,27.247,23.431,11.514,47.783,24.685V5348.36Z" transform="translate(448.047 -4178.233)" fill="#e53516"/>
          <path id="Path_2" data-name="Path 2" d="M558.1,4312.713c62.3-5.328,112.149-20.243,159.427-38.021q4.7-1.761,9.369-3.565c7.1-2.733,14.154-5.531,21.206-8.36q5.129-2.049,10.249-4.132c19.476-7.879,39.012-15.909,59.317-23.606a786.491,786.491,0,0,1,82.273-26.639c.243-.063.476-.117.708-.181q11.033-2.852,22.582-5.4a648.293,648.293,0,0,1,136.157-15.546c73.937-.5,159.761,11.82,260.325,47.769q7.937,2.834,16.005,5.873,21.6,8.117,44.091,17.733,28.834,12.331,59.165,27.247,23.431,11.514,47.783,24.685c.334.181.678.373,1.012.554h-1.012l-841.821,1.442h-.688Z" transform="translate(459.79 -4182.757)" fill="#e53516"/>
          <path id="Path_3" data-name="Path 3" d="M-448,4314.748c1.346-.768,2.7-1.537,4.047-2.285,36.655-20.766,71.812-38.489,105.512-53.543,218.056-97.351,375.53-82.787,490.39-55.829,36.847,8.648,68.564,20.029,97.924,32.223,18.585,7.708,36.22,15.737,53.621,23.606,54.36,24.588,106.423,47.608,177.688,54.238l-475.933.812-449.2.769Z" transform="translate(448 -4183.042)" fill="#e53516"/>
        </g>
        <g id="Group_2" data-name="Group 2" transform="translate(1093.668 4.425)">
          <path id="Path_4" data-name="Path 4" d="M637,5348.1V4311.321l7.011-3.544,81.959-41.437,16.542-8.36h641.936c17.867,8.05,35.471,15.93,53.6,23.115,37.039,14.691,76.233,26.479,124.087,30.919l88.707-.16c80.411-6.854,140.073-29.606,200.25-53.875h621.459c34.054,14.509,69.667,31.646,106.949,51.739V5348.1Z" transform="translate(-632.953 -4182.395)" fill="#e53516"/>
          <path id="Path_5" data-name="Path 5" d="M1639.1,4316.364c80.411-6.854,140.073-29.607,200.25-53.875,23.087-9.3,46.246-18.812,70.689-27.738a719.3,719.3,0,0,1,94.191-27.877c110.794-24.247,256.683-29.542,456.579,55.615,34.054,14.509,69.667,31.646,106.949,51.739.334.182.678.374,1.011.544h-1.011l-644.465,1.1Z" transform="translate(-621.21 -4186.903)" fill="#e53516"/>
          <path id="Path_6" data-name="Path 6" d="M633,4318.4c1.346-.769,2.7-1.537,4.047-2.285,2.115-1.2,4.219-2.37,6.323-3.544q37.7-21.028,73.279-37.871,13.1-6.23,25.91-11.925,35.451-15.776,68.8-27.738a870.81,870.81,0,0,1,87.706-26.639c.243-.064.475-.117.708-.181,58.073-14.211,110.814-20.222,158.739-20.948,67.1-1.036,124.755,8.274,174.441,19.891a606.343,606.343,0,0,1,87.534,27.877q7.284,2.9,14.356,5.873c13.9,5.807,27.286,11.787,40.479,17.733q4.6,2.066,9.176,4.132c17.867,8.05,35.471,15.93,53.6,23.115,37.039,14.691,76.233,26.479,124.087,30.92l-76.3.128-848.832,1.452Z" transform="translate(-633 -4187.187)" fill="#e53516"/>
        </g>
      </g>
    </g>
  </g>
  <g id="Group_10" data-name="Group 10" transform="translate(0 361)">
    <g id="Group_9" data-name="Group 9" clip-path="url(#clip-path-2)">
      <g id="Group_8" data-name="Group 8" transform="translate(-645.477)">
        <g id="Group_6" data-name="Group 6" transform="translate(1093.668)">
          <path id="Path_7" data-name="Path 7" d="M2386.5,4359V5404.1l-105.512,53.77H1639.052c-54.36-24.692-106.423-47.81-177.688-54.467l-88.708.161c-62.3,5.35-112.149,20.329-159.427,38.181q-4.7,1.769-9.368,3.581c-7.1,2.745-14.154,5.554-21.206,8.4q-5.13,2.057-10.249,4.149H550.949q-28.834-12.384-59.165-27.362-23.431-11.563-47.783-24.789V4359Z" transform="translate(-442.988 -4359)" fill="#e53516"/>
          <path id="Path_8" data-name="Path 8" d="M1372.668,5333.241c-62.3,5.208-112.149,19.788-159.427,37.165q-4.7,1.723-9.368,3.486c-7.1,2.672-14.154,5.407-21.206,8.172q-5.129,2-10.249,4.039c-19.476,7.7-39.012,15.551-59.317,23.076a799.784,799.784,0,0,1-82.273,26.04c-.243.063-.476.115-.708.177q-11.033,2.787-22.582,5.281a662.577,662.577,0,0,1-136.157,15.2c-73.936.49-159.76-11.554-260.325-46.694q-7.937-2.771-16.005-5.74-21.6-7.937-44.091-17.336-28.834-12.053-59.165-26.634-23.431-11.256-47.783-24.13c-.334-.177-.678-.365-1.012-.543h1.012l841.821-1.409h.688Z" transform="translate(-443 -4287.228)" fill="#e53516"/>
          <path id="Path_9" data-name="Path 9" d="M2378.763,5331.6c-1.346.751-2.7,1.5-4.047,2.234-36.655,20.3-71.812,37.624-105.512,52.34-218.056,95.162-375.53,80.927-490.39,54.574-36.847-8.454-68.564-19.579-97.924-31.5-18.585-7.536-36.219-15.384-53.621-23.076-54.36-24.036-106.423-46.538-177.688-53.019l475.933-.792,449.2-.752Z" transform="translate(-431.204 -4287.299)" fill="#e53516"/>
        </g>
        <g id="Group_7" data-name="Group 7">
          <path id="Path_10" data-name="Path 10" d="M1305.5,4359V5400.264l-7.011,3.56-81.959,41.616-16.542,8.4H558.052c-17.867-8.085-35.471-16-53.6-23.215-37.039-14.755-76.233-26.593-124.087-31.054l-88.707.162c-80.411,6.884-140.072,29.734-200.25,54.108H-530.051c-34.054-14.572-69.667-31.783-106.949-51.964V4359Z" transform="translate(638.012 -4359)" fill="#e53516"/>
          <path id="Path_11" data-name="Path 11" d="M291.668,5329.561c-80.411,6.7-140.072,28.94-200.249,52.664-23.087,9.09-46.246,18.39-70.689,27.114a731.884,731.884,0,0,1-94.191,27.25c-110.793,23.7-256.683,28.878-456.579-54.364-34.054-14.184-69.667-30.936-106.949-50.577-.334-.177-.678-.365-1.012-.532h1.012l644.465-1.074Z" transform="translate(638 -4287.388)" fill="#e53516"/>
          <path id="Path_12" data-name="Path 12" d="M1297.763,5327.92c-1.345.751-2.7,1.5-4.047,2.234-2.114,1.169-4.219,2.317-6.323,3.465q-37.7,20.555-73.279,37.019-13.1,6.091-25.91,11.658-35.451,15.42-68.8,27.115a886.047,886.047,0,0,1-87.706,26.04c-.243.063-.476.115-.708.177-58.073,13.892-110.813,19.768-158.739,20.478-67.1,1.012-124.755-8.089-174.441-19.444a616.322,616.322,0,0,1-87.534-27.25q-7.284-2.834-14.356-5.74c-13.9-5.678-27.286-11.522-40.479-17.336q-4.6-2.019-9.176-4.039c-17.867-7.87-35.471-15.572-53.6-22.6-37.039-14.361-76.233-25.883-124.087-30.225l76.3-.125,848.832-1.419Z" transform="translate(649.796 -4287.459)" fill="#e53516"/>
        </g>
      </g>
    </g>
  </g>
  <path id="Path_41" data-name="Path 41" d="M1942.5,4316V5406H1697.876c-18.585-7.22-36.219-14.74-53.621-22.11-54.36-23.03-106.423-44.59-177.688-50.8l-88.707.15c-62.3,4.99-112.149,18.96-159.427,35.61q-13.1,5.835-25.91,11.17-35.451,14.775-68.8,25.98H614.6q-7.284-2.715-14.356-5.5-21.6-7.6-44.091-16.61-28.834-11.55-59.165-25.52c-37.039-13.76-76.233-24.8-124.087-28.96l-88.707.15c-80.411,6.42-140.072,27.73-200.249,50.46-23.087,8.71-46.246,17.62-70.689,25.98H0V4347.5Z" transform="translate(0 -3930)" fill="#e53516"/>
  <rect id="Rectangle_5" data-name="Rectangle 5" width="1942" height="272" transform="translate(1942 1573) rotate(180)" fill="none"/>
</svg>
