<svg style="object-fit:cover" id="my-svg" version="1" baseProfile="full" width="100%" height="100%" viewBox="0 0 1920 937" xmlns="http://www.w3.org/2000/svg"><rect width="1920" height="937" fill="#ffffff"/><path transform="scale(1, 1)" d="M 0,937 V 0,655 C 272.5,583 545,511 865,511 C 1185,511 1552.5,583 1920,655 C 1920,655 1920,937 1920,937 Z" stroke="none" stroke-width="0" fill="#e53516" class="transition-all duration-300 ease-in-out delay-150" style="transform-origin: center center;"/><path transform="scale(1, 1)" d="M 0,937 V 0,983 C 250,1075.5 500,1168 820,1168 C 1140,1168 1530,1075.5 1920,983 C 1920,983 1920,937 1920,937 Z" stroke="none" stroke-width="0" fill="#16e524" class="transition-all duration-300 ease-in-out delay-150" style="transform-origin: center center;"/><path transform="scale(1, 1)" d="M 0,937 V 0,1475 C 270,1483.5 540,1492 860,1492 C 1180,1492 1550,1483.5 1920,1475 C 1920,1475 1920,937 1920,937 Z" stroke="none" stroke-width="0" fill="#16e5ae" class="transition-all duration-300 ease-in-out delay-150" style="transform-origin: center center;"/><path transform="scale(1, 1)" d="M 0,937 V 0,2213 C 365,2198 730,2183 1050,2183 C 1370,2183 1645,2198 1920,2213 C 1920,2213 1920,937 1920,937 Z" stroke="none" stroke-width="0" fill="#1670e5" class="transition-all duration-300 ease-in-out delay-150" style="transform-origin: center center;"/><path transform="scale(1, 1)" d="M 0,937 V 0,3320 C 401,3312 802,3304 1122,3304 C 1442,3304 1681,3312 1920,3320 C 1920,3320 1920,937 1920,937 Z" stroke="none" stroke-width="0" fill="#4616e5" class="transition-all duration-300 ease-in-out delay-150" style="transform-origin: center center;"/></svg>