<svg xmlns="http://www.w3.org/2000/svg" width="77.592" height="78" viewBox="0 0 77.592 78">
  <g id="Group_67" data-name="Group 67" transform="translate(-816.742 -3373)">
    <path id="Path_88" data-name="Path 88" d="M859.967,3438.815h-8.561v-48.52a22.471,22.471,0,0,0-2.14-1.729v51.32a1.544,1.544,0,0,0,.226.684l3.205,5.771,1.157,2.083,0,.008.032.058.861,1.549a1.076,1.076,0,0,0,.58.489.989.989,0,0,0,.293.058.412.412,0,0,0,.062,0,.387.387,0,0,0,.061,0h0c.024,0,.048,0,.071-.006a.745.745,0,0,0,.13-.025l.007,0,.057-.017.018-.006.005,0a1.086,1.086,0,0,0,.407-.253,1.121,1.121,0,0,0,.178-.236l.892-1.607,1.162-2.091,3.2-5.766a2.169,2.169,0,0,0,.229-.689V3388.4a22.175,22.175,0,0,0-2.14,1.681Zm-3.739,7.526-.542.974-.541-.974-2.991-5.385h7.065Zm4.938-72.4A3.191,3.191,0,0,0,858.9,3373h-6.423a3.213,3.213,0,0,0-3.209,3.21v9.138a23.584,23.584,0,0,1,2.14,1.5v-5.284h8.561v5.1a23.344,23.344,0,0,1,2.14-1.465v-8.988A3.183,3.183,0,0,0,861.166,3373.941Zm-1.2,5.48h-8.561v-3.211a1.076,1.076,0,0,1,1.069-1.07H858.9a1.07,1.07,0,0,1,1.069,1.07Z" fill="#e53516"/>
    <g id="Group_66" data-name="Group 66">
      <path id="Path_89" data-name="Path 89" d="M894.035,3405.885v-1.254c0-.881,0-1.712-.046-2.472a19.236,19.236,0,0,0-1.757-6.832,19.533,19.533,0,0,0-9.92-9.664c-.222-.1-.447-.188-.674-.275-.152-.058-.3-.115-.457-.169-.23-.081-.462-.157-.7-.23q-.235-.072-.472-.138t-.477-.127c-.161-.04-.322-.079-.484-.114s-.324-.07-.488-.1a21,21,0,0,0-4.051-.387q-.761,0-1.534.052c-.193.014-.385.029-.578.046s-.388.039-.582.061c-.129.015-.259.032-.388.05-.26.035-.519.074-.779.117-.13.021-.259.045-.39.068-.26.048-.521.1-.781.157s-.52.117-.781.183c-.131.032-.26.066-.391.1a19.823,19.823,0,0,0-6.2,2.9,22.139,22.139,0,0,0-2.14,1.681,24.272,24.272,0,0,0-3.19,3.438l-1.215,1.58-1.216-1.58a24.97,24.97,0,0,0-2.94-3.22,22.4,22.4,0,0,0-2.14-1.729,19.57,19.57,0,0,0-5.516-2.764,23.543,23.543,0,0,0-6.587-1.065c-.223-.006-.445-.007-.663-.007a20.472,20.472,0,0,0-5.913.8,19.1,19.1,0,0,0-10.3,7.806,19.5,19.5,0,0,0-3.152,9.287c-.032.469-.047.89-.047,1.406l-.009.227-.1,26.744c-.01.481.011.9.034,1.282l.055,1.245.116.839a19.473,19.473,0,0,0,5.987,11.61,19.908,19.908,0,0,0,5.506,3.643,8.2,8.2,0,0,0,.995.407l.583.2a10.841,10.841,0,0,0,1.6.471l.793.2.866.132c.53.086,1.124.178,1.527.205l.147.012c1.013.057,2.209.057,3.366.057l13.575,0h3.619l.071-.006a.823.823,0,0,0,.13-.026h.007c.022-.006.045-.012.067-.02l.008,0a1.058,1.058,0,0,0,.287-.205,1.137,1.137,0,0,0,.184-.244l.921-1.657h-3.772l-2.724,0H838.555c-1.123,0-2.283,0-3.232-.052l-.135-.012c-.351-.022-1.064-.14-1.333-.183l-.727-.106-.751-.191-.03-.008a9.184,9.184,0,0,1-1.322-.385l-.439-.149-.186-.067a6.288,6.288,0,0,1-.762-.309l-.061-.028a17.754,17.754,0,0,1-4.933-3.259,17.311,17.311,0,0,1-5.319-10.328l-.1-.689-.054-1.2v-.018c-.022-.36-.04-.715-.031-1.12l.1-26.715.009-.229v-.045c0-.479.012-.849.042-1.273a17.352,17.352,0,0,1,2.8-8.259,16.913,16.913,0,0,1,9.116-6.918,15.03,15.03,0,0,1,1.51-.371c.209-.04.424-.077.641-.11q.489-.073,1-.123c.227-.022.458-.04.693-.055.467-.03.949-.045,1.441-.045.2,0,.406,0,.613.008a21.312,21.312,0,0,1,5.987.965,17.971,17.971,0,0,1,6.168,3.433,21.523,21.523,0,0,1,2.14,2.066q.636.7,1.225,1.469l2.931,3.808,2.931-3.809a22.264,22.264,0,0,1,1.474-1.74,21.222,21.222,0,0,1,2.14-2,18.222,18.222,0,0,1,6.757-3.514,21.948,21.948,0,0,1,5.648-.761,19.053,19.053,0,0,1,2.734.193c.3.043.59.092.882.149s.58.122.864.193a16.033,16.033,0,0,1,2.469.833,17.357,17.357,0,0,1,8.811,8.59,17.083,17.083,0,0,1,1.559,6.055c.041.688.041,1.451.041,2.335v1.257l.066,24.871c0,.22-.009.436-.018.663-.006.112-.011.222-.014.332-.02.22-.032.455-.034.683a17.1,17.1,0,0,1-1.59,6.053,17.588,17.588,0,0,1-6.974,7.65,16.826,16.826,0,0,1-1.936.982,18.649,18.649,0,0,1-3.02.966,25.6,25.6,0,0,1-3.326.461c-.276.023-.532.042-.779.057l-14.1,0-1.2,2.163,15.367,0h.033c.275-.016.558-.037.859-.062a28.154,28.154,0,0,0,3.607-.5,20.745,20.745,0,0,0,3.4-1.086,18.362,18.362,0,0,0,2.2-1.115,19.769,19.769,0,0,0,7.832-8.593,19.3,19.3,0,0,0,1.791-6.852l0-.077c0-.18.01-.374.027-.545l.006-.079c0-.113.007-.227.011-.343.011-.241.021-.49.021-.756Z" fill="#e53516"/>
      <path id="Path_90" data-name="Path 90" d="M874.358,3451H858.547l1.461-2.63,14.239,0c.231-.014.486-.033.761-.056a25.375,25.375,0,0,0,3.295-.456,18.5,18.5,0,0,0,2.98-.954,16.414,16.414,0,0,0,1.906-.968,17.374,17.374,0,0,0,6.882-7.546,16.91,16.91,0,0,0,1.568-5.973c0-.218.013-.46.035-.686,0-.1.007-.209.013-.323.009-.242.017-.444.017-.651l-.065-26.128c0-.88,0-1.639-.042-2.321a16.834,16.834,0,0,0-1.537-5.971,17.112,17.112,0,0,0-8.69-8.472,15.761,15.761,0,0,0-2.435-.823c-.281-.07-.566-.133-.853-.19s-.576-.1-.87-.147a20.885,20.885,0,0,0-8.287.563,18.075,18.075,0,0,0-6.67,3.469,20.953,20.953,0,0,0-2.117,1.974,22.2,22.2,0,0,0-1.459,1.722l-3.117,4.051-3.116-4.048c-.39-.509-.8-1-1.213-1.455a21.269,21.269,0,0,0-2.118-2.045,17.7,17.7,0,0,0-6.087-3.388,21.075,21.075,0,0,0-5.923-.954c-.7-.017-1.378,0-2.033.036-.233.015-.461.033-.686.054-.336.033-.667.074-.989.122-.213.033-.425.069-.631.109a14.807,14.807,0,0,0-1.486.364,16.682,16.682,0,0,0-8.988,6.822,17.134,17.134,0,0,0-2.768,8.149c-.029.414-.041.778-.041,1.256l-.011.283-.1,26.707c-.009.413.01.772.031,1.1l.054,1.221.1.665a17.086,17.086,0,0,0,5.247,10.191,17.534,17.534,0,0,0,4.869,3.216l.064.029a6.005,6.005,0,0,0,.743.3l.621.215a8.9,8.9,0,0,0,1.3.379l.787.2.778.113c.3.048.927.149,1.239.169l.141.013c.934.051,2.092.051,3.211.051l19.266,0-1.114,2.005a1.312,1.312,0,0,1-.224.295,1.293,1.293,0,0,1-.351.251l-.15.047a.88.88,0,0,1-.135.025c-.026,0-.056.005-.086.006H852.13l-13.575,0c-1.16,0-2.359,0-3.379-.057l-.153-.012c-.412-.027-1.014-.122-1.546-.207l-.863-.132-.816-.208a11.043,11.043,0,0,1-1.629-.48l-.574-.2a8.449,8.449,0,0,1-1.025-.42,20.088,20.088,0,0,1-5.559-3.68,19.7,19.7,0,0,1-6.059-11.75l-.116-.838-.057-1.266c-.022-.363-.045-.8-.035-1.3l.109-26.975c0-.505.015-.93.048-1.413a19.752,19.752,0,0,1,3.19-9.4,19.327,19.327,0,0,1,10.429-7.9,21.085,21.085,0,0,1,6.649-.8,23.723,23.723,0,0,1,6.653,1.076,19.827,19.827,0,0,1,5.579,2.795,22.78,22.78,0,0,1,2.162,1.748,25.276,25.276,0,0,1,2.969,3.25l1.03,1.339,1.029-1.339a24.6,24.6,0,0,1,3.221-3.471,22.29,22.29,0,0,1,2.163-1.7,20,20,0,0,1,6.273-2.937l.4-.1c.262-.066.525-.127.787-.184s.526-.11.789-.158c.158-.029.276-.05.4-.069q.391-.064.784-.119c.132-.018.263-.034.394-.05.194-.022.391-.043.586-.061s.389-.033.584-.046a21.652,21.652,0,0,1,5.646.338c.166.033.33.068.494.1s.327.075.489.115.323.084.485.129.318.092.475.14c.24.074.475.15.708.233.155.054.308.111.463.171.23.089.458.181.683.279a19.765,19.765,0,0,1,10.039,9.78,19.459,19.459,0,0,1,1.777,6.914c.047.769.047,1.6.047,2.488v1.253l.066,24.872c0,.27-.011.522-.021.766l-.019.43c-.016.169-.026.354-.026.527l0,.086a19.524,19.524,0,0,1-1.813,6.943,20,20,0,0,1-7.925,8.694,18.551,18.551,0,0,1-2.23,1.129,21.048,21.048,0,0,1-3.436,1.1,28.194,28.194,0,0,1-3.639.507C874.919,3450.963,874.635,3450.984,874.358,3451Zm-15.017-.468,14.97,0c.292-.017.573-.038.873-.063a27.683,27.683,0,0,0,3.578-.5,20.467,20.467,0,0,0,3.355-1.073,17.82,17.82,0,0,0,2.172-1.1,19.522,19.522,0,0,0,7.74-8.49,19.068,19.068,0,0,0,1.77-6.771l0-.069c0-.179.01-.38.027-.558l.017-.4c.01-.252.021-.5.021-.76l-.066-26.125c0-.877,0-1.705-.046-2.458a19,19,0,0,0-1.734-6.747,19.3,19.3,0,0,0-9.8-9.548c-.222-.1-.443-.186-.667-.273-.15-.057-.3-.113-.45-.165-.228-.081-.457-.156-.69-.228-.153-.047-.309-.092-.465-.136s-.315-.086-.472-.126-.316-.077-.475-.112-.322-.069-.485-.1a21.28,21.28,0,0,0-5.523-.33c-.191.013-.381.028-.573.045s-.384.038-.576.06c-.128.015-.256.031-.383.048-.258.036-.515.075-.773.118-.117.018-.232.039-.348.061-.3.053-.554.1-.811.161s-.516.116-.774.181l-.389.1a19.513,19.513,0,0,0-6.126,2.869,21.838,21.838,0,0,0-2.119,1.664,24.049,24.049,0,0,0-3.16,3.4l-1.4,1.821-1.4-1.82a24.91,24.91,0,0,0-2.913-3.191,22.424,22.424,0,0,0-2.118-1.711,19.374,19.374,0,0,0-5.449-2.731,23.293,23.293,0,0,0-6.524-1.054,20.468,20.468,0,0,0-6.5.778,18.855,18.855,0,0,0-10.173,7.71,19.275,19.275,0,0,0-3.115,9.176c-.033.471-.047.886-.047,1.389l-.009.236-.1,26.736c-.011.488.012.91.034,1.267l.055,1.249.114.817a19.238,19.238,0,0,0,5.914,11.472,19.659,19.659,0,0,0,5.442,3.6,8.306,8.306,0,0,0,.971.4l.588.2a10.655,10.655,0,0,0,1.578.464l.8.2.843.128c.523.085,1.112.177,1.507.2l.151.012c1,.056,2.194.056,3.347.056l17.194,0a.793.793,0,0,0,.135-.022l.02-.006a.729.729,0,0,0,.249-.166.823.823,0,0,0,.146-.192l.728-1.31-18.472,0c-1.125,0-2.289,0-3.245-.053l-.143-.013c-.328-.02-.969-.123-1.277-.173l-.8-.116-.775-.2a9.619,9.619,0,0,1-1.38-.4l-.618-.213a6.537,6.537,0,0,1-.79-.322l-.051-.023a17.98,17.98,0,0,1-4.995-3.3,17.539,17.539,0,0,1-5.391-10.467l-.1-.687-.055-1.221c-.021-.357-.041-.727-.032-1.153l.108-26.95c0-.524.013-.9.043-1.325a17.584,17.584,0,0,1,2.843-8.37,17.15,17.15,0,0,1,9.244-7.014,15.149,15.149,0,0,1,1.533-.376c.212-.041.43-.078.65-.112.33-.049.669-.092,1.013-.124.231-.023.464-.041.7-.056.669-.043,1.361-.054,2.074-.038a21.535,21.535,0,0,1,6.053.977,18.161,18.161,0,0,1,6.247,3.476,21.746,21.746,0,0,1,2.163,2.089c.423.465.839.964,1.238,1.483l2.745,3.567,2.746-3.569a22.44,22.44,0,0,1,1.489-1.757,21.418,21.418,0,0,1,2.164-2.018,18.553,18.553,0,0,1,6.843-3.557,21.3,21.3,0,0,1,8.475-.574c.3.044.6.094.893.15s.589.125.876.2a16.3,16.3,0,0,1,2.506.846,17.587,17.587,0,0,1,8.929,8.705,17.284,17.284,0,0,1,1.58,6.138c.043.7.043,1.464.043,2.351v1.257l.065,24.87c0,.214-.008.422-.016.641-.008.146-.012.253-.015.362-.021.229-.033.457-.034.678a17.408,17.408,0,0,1-1.612,6.151,17.837,17.837,0,0,1-7.068,7.751,16.9,16.9,0,0,1-1.963.995,18.745,18.745,0,0,1-3.06.98,25.859,25.859,0,0,1-3.358.466c-.278.023-.536.042-.784.057l-13.978,0Z" fill="#e53516"/>
    </g>
  </g>
</svg>

