<svg xmlns="http://www.w3.org/2000/svg" width="65.534" height="78" viewBox="0 0 65.534 101">
  <g id="Group_60" data-name="Group 60" transform="translate(-1364.466 -3362)">
    <g id="Group_55" data-name="Group 55">
      <rect id="Rectangle_20" data-name="Rectangle 20" width="2.218" height="39.343" transform="translate(1427.65 3384.9)" fill="#e53516"/>
      <path id="Path_81" data-name="Path 81" d="M1364.642,3424.9a4.986,4.986,0,0,1-.044-.659V3384.9h2.218v39.343a2.766,2.766,0,0,0,.024.366Z" fill="#e53516"/>
      <path id="Path_82" data-name="Path 82" d="M1429.867,3390.353h-2.217v-6.183a2.927,2.927,0,0,0-2.924-2.923h-54.987a2.926,2.926,0,0,0-2.923,2.923v6.183H1364.6v-6.183a5.146,5.146,0,0,1,5.141-5.141h54.987a5.146,5.146,0,0,1,5.141,5.141Z" fill="#e53516"/>
      <rect id="Rectangle_21" data-name="Rectangle 21" width="9.078" height="2.218" rx="1.109" transform="translate(1392.893 3384.538)" fill="#e53516"/>
      <rect id="Rectangle_22" data-name="Rectangle 22" width="2.218" height="12.294" transform="translate(1396.323 3362.083)" fill="#e53516"/>
      <rect id="Rectangle_23" data-name="Rectangle 23" width="2.218" height="12.385" transform="translate(1384.608 3362.41) rotate(-10.638)" fill="#e53516"/>
      <rect id="Rectangle_24" data-name="Rectangle 24" width="12.385" height="2.218" transform="translate(1405.783 3374.172) rotate(-79.365)" fill="#e53516"/>
    </g>
    <g id="Group_59" data-name="Group 59">
      <g id="Group_58" data-name="Group 58">
        <g id="Group_57" data-name="Group 57">
          <g id="Group_56" data-name="Group 56">
            <path id="Path_83" data-name="Path 83" d="M1413.343,3406.619H1411.3a15.06,15.06,0,0,0-11.838,5.683l-.151.193c-.2.252-.4.531-.566.771l-.069.1-.1.073a2.21,2.21,0,0,1-1.333.442,2.138,2.138,0,0,1-1.309-.438l-.07-.054-.054-.07-.1-.12-.093-.1-.05-.054-.039-.058a1.58,1.58,0,0,0-.12-.166l-.019-.024-.035-.05-.031-.031-.054-.089-.02-.031-.011-.012-.047-.054-.031-.043-.038-.046a15.089,15.089,0,0,0-11.958-5.83h-2.046a16.675,16.675,0,0,0-16.656,16.653v15.448a23.893,23.893,0,0,0,23.865,23.866,1.325,1.325,0,0,0,0-2.65,21.242,21.242,0,0,1-21.22-21.216v-15.448a14.025,14.025,0,0,1,14.011-14h2.046a12.484,12.484,0,0,1,9.788,4.7l.012.016.012.015.089.121.019.03.019.035a4.6,4.6,0,0,0,.554.752l.016.015.008.012.011.008.078.085.05.05a4.828,4.828,0,0,0,3.428,1.434,4.916,4.916,0,0,0,1.918-.392l.038-.019.043-.012a1.466,1.466,0,0,0,.322-.166l.05-.035.023-.016.023-.015a3.827,3.827,0,0,0,.543-.422l.007-.008.008,0a8.675,8.675,0,0,0,.752-.771l.093-.108.011,0,.008-.008.031-.039c.1-.112.2-.232.283-.341l.007-.011.008-.012c.159-.19.322-.407.535-.7l.05-.066.023-.031.024-.027a12.38,12.38,0,0,1,9.25-4.067h2.041a14.021,14.021,0,0,1,14,14v15.4l0,.089,0,.019v.019a21.665,21.665,0,0,1-43.326.244v-.093l.007-.7a13.854,13.854,0,1,1,13.821,14.29,1.323,1.323,0,1,0,.024,2.646,16.5,16.5,0,1,0-16.494-16.986v.023c0,.066,0,.128,0,.194v.073c0,.066,0,.128,0,.2,0,.042,0,.093,0,.132v.158c0,.055,0,.109,0,.155v.043a24.309,24.309,0,0,0,48.614-.488v-15.421A16.675,16.675,0,0,0,1413.343,3406.619Z" fill="#e53516"/>
            <path id="Path_84" data-name="Path 84" d="M1397.435,3413.1a1.561,1.561,0,0,0,.263-.055A1.47,1.47,0,0,1,1397.435,3413.1Zm-.7-.081a1.234,1.234,0,0,1-.233-.114A1.234,1.234,0,0,0,1396.738,3413.016Zm.7.081c-.04.005-.079.007-.119.009C1397.356,3413.1,1397.4,3413.1,1397.435,3413.1Zm-.291.008c-.03,0-.06,0-.091-.007C1397.084,3413.1,1397.114,3413.1,1397.144,3413.1Zm-.325-.06-.081-.029C1396.765,3413.027,1396.792,3413.036,1396.819,3413.045Zm.425.066c.024,0,.048,0,.072-.005a1.443,1.443,0,0,1-.172,0C1397.177,3413.107,1397.211,3413.111,1397.244,3413.111Zm-.191-.013a1.311,1.311,0,0,1-.234-.053A1.35,1.35,0,0,0,1397.053,3413.1Z" fill="#e53516"/>
          </g>
        </g>
      </g>
    </g>
  </g>
</svg>
