<svg xmlns="http://www.w3.org/2000/svg" width="60.978" height="78" viewBox="0 0 60.978 87.564">
  <g id="Group_86" data-name="Group 86" transform="translate(-271.136 -3777.66)">
    <g id="Group_85" data-name="Group 85">
      <g id="Group_84" data-name="Group 84">
        <g id="Group_83" data-name="Group 83">
          <g id="Group_82" data-name="Group 82">
            <g id="Group_81" data-name="Group 81">
              <path id="Path_99" data-name="Path 99" d="M281.272,3786.473h-1.065a29.954,29.954,0,0,0-2.3,2.534,13.159,13.159,0,0,1,1.47-.082h1.987a28.756,28.756,0,0,1,2.384-2.236A14.235,14.235,0,0,0,281.272,3786.473Zm25.995,49.04a20,20,0,0,1-5.162.676c-.1,0-.2,0-.3,0a20.17,20.17,0,0,1-19.736-19.711v-.086l.006-.647a12.818,12.818,0,1,1,12.789,13.222,1.225,1.225,0,0,0,.019,2.449,15.268,15.268,0,1,0-15.26-15.716v.02c0,.06,0,.118,0,.181v.067c0,.061,0,.118,0,.182,0,.041,0,.086,0,.121v.15c0,.048,0,.1,0,.144v.038a22.446,22.446,0,0,0,22.236,22.035c.083,0,.163,0,.246,0a21.84,21.84,0,0,0,2.633-.156c.1-.013.2-.023.294-.035a22.521,22.521,0,0,0,16.1-10.321A27.9,27.9,0,0,1,307.267,3835.513Z" fill="#e53516"/>
            </g>
          </g>
        </g>
      </g>
      <path id="Path_100" data-name="Path 100" d="M301.576,3777.66a30.377,30.377,0,0,0-21.369,8.813,29.954,29.954,0,0,0-2.3,2.534,30.43,30.43,0,0,0-3.137,33.571,21.132,21.132,0,0,1-1.008-6.469q0-.4.015-.8.1-2.8-.051-5.6-.044-.776-.043-1.56a27.839,27.839,0,0,1,7.681-19.222,28.756,28.756,0,0,1,2.384-2.236,27.938,27.938,0,1,1,18.353,49.392l-.3.1a21.166,21.166,0,0,1-6.836,1.126c-.175,0-.35,0-.526-.01a22.433,22.433,0,0,0,7.416,1.333q1.459-.011,2.879-.153c.1-.013.2-.023.294-.035a30.489,30.489,0,0,0-3.456-60.787Z" fill="#e53516"/>
    </g>
    <line id="Line_17" data-name="Line 17" x2="27.736" transform="translate(289.695 3846.461)" fill="none" stroke="#e53516" stroke-linecap="round" stroke-miterlimit="10" stroke-width="2.447"/>
    <line id="Line_18" data-name="Line 18" x2="19.578" transform="translate(293.773 3855.027)" fill="none" stroke="#e53516" stroke-linecap="round" stroke-miterlimit="10" stroke-width="2.447"/>
    <line id="Line_19" data-name="Line 19" x2="11.421" transform="translate(297.852 3864)" fill="none" stroke="#e53516" stroke-linecap="round" stroke-miterlimit="10" stroke-width="2.447"/>
  </g>
</svg>
