<svg xmlns="http://www.w3.org/2000/svg" width="80.313" height="67.31" viewBox="0 0 80.313 67.31">
  <g id="Group_91" data-name="Group 91" transform="translate(-1362.853 -3787.69)">
    <g id="Group_90" data-name="Group 90">
      <g id="Group_89" data-name="Group 89">
        <g id="Group_87" data-name="Group 87">
          <path id="Path_101" data-name="Path 101" d="M1442.334,3816.813a3.253,3.253,0,0,0-1.4-.934,37.852,37.852,0,0,1-35.812,36.6h-.182l-.061-.011a6.415,6.415,0,0,0-.65-.02h-.386a5.021,5.021,0,0,1-.517.02H1401a36.8,36.8,0,0,1-14.526-3.887l-.68-.335.142-.752a23.066,23.066,0,0,1,1.706-5.592,20.669,20.669,0,0,1,2.436-4.132l.051-.071a1.123,1.123,0,0,1,.091-.112c.822-1.076,1.715-2.2,2.791-3.532.792-.965,1.625-2,2.457-3.076a23.161,23.161,0,0,0,4.812-15.043,2.1,2.1,0,0,0-.711-1.381.973.973,0,0,0-.366-.051,1.9,1.9,0,0,0-1.015.254,13,13,0,0,1-9.054,3.411c-.376,0-.751-.01-1.137-.031-.254-.02-.477-.03-.68-.03a5.865,5.865,0,0,0-4.3,1.563,3.19,3.19,0,0,1-2.193.914,3.3,3.3,0,0,1-2.365-1.086,3.186,3.186,0,0,1-.03-4.558c.213-.244.426-.447.629-.65l.132-.142.02-.02.031-.02a4.785,4.785,0,0,0,.751-.772l.183-.254c.3-.406.609-.812.923-1.218l.1-.152.081-.1a26.9,26.9,0,0,0,3.025-4.456,23.374,23.374,0,0,1,7.258-8.912,3.131,3.131,0,0,0,.944-1.949,14.872,14.872,0,0,0,.1-2.243l-.02-.285-.1-2.274-.051-1.228,1.218.183a21.146,21.146,0,0,1,2.284.477l.051.01a24.022,24.022,0,0,1,5.623,2.213l.021.01a20.807,20.807,0,0,1,8.019,7.025c.04.061.111.172.182.274a.776.776,0,0,1,.071.1,3.483,3.483,0,0,1,.325.437l.051.081c.477.72.9,1.441,1.289,2.152a1.754,1.754,0,0,0,.9.589h.02l.03.01a.915.915,0,0,0,.132.01,1.178,1.178,0,0,0,.68-.254c.376-.274.762-.731.3-1.735l-.061-.112v-.041c-.02-.02-.031-.041-.051-.061l-.112-.142-.02-.071-.041-.071-.06-.061-.041-.112a26.869,26.869,0,0,0-18.708-13.074c-.122-.02-.244-.04-.375-.071-.061-.01-.122-.02-.193-.03-.264-.041-.518-.071-.8-.1-.843-.091-1.533-.162-2.223-.183h-.051c-.325-.03-.67-.03-1.025-.03a26.87,26.87,0,0,0-27,26.23v.517l-.011.051v.325l.011.071v.66a40.345,40.345,0,0,0,19.56,33.731l.142.1a1.312,1.312,0,0,0,.122.072,39.635,39.635,0,0,0,15.977,5.3,36.957,36.957,0,0,0,4.467.254c.325,0,.649,0,.984-.01v-.234h.041c.2,0,.386,0,.568-.01l.112-.01.213-.01.01.223.539-.03a40.347,40.347,0,0,0,37.547-35.528A3.355,3.355,0,0,0,1442.334,3816.813Zm-58.986,30.087-1.2-.812a38.131,38.131,0,0,1-16.83-30.757v-.173l.01-1.187a24.291,24.291,0,0,1,23.581-23.774l1.055-.04v1.055l.01.264v.477c0,.823.01,1.685-.071,2.518a5.388,5.388,0,0,1-1.238,2.71c-.548.69-1.127,1.35-1.675,1.979l-.071.082-.376.436a27.326,27.326,0,0,0-3.6,4.639,36.254,36.254,0,0,1-6.172,8.628,5.836,5.836,0,0,0-.3,8.2,5.735,5.735,0,0,0,4.263,1.949,6.7,6.7,0,0,0,3.979-1.391,4.935,4.935,0,0,1,2.375-.954c1.7-.173,3.441-.335,5.35-.5l1.39-.122,2.67-.234,1.807-.152-.812,1.624c-.183.366-.355.762-.538,1.158-.091.182-.162.355-.233.507l-.143.325a43.884,43.884,0,0,1-2.456,4.953,32.724,32.724,0,0,1-3.705,4.822l-.416.487a29.132,29.132,0,0,0-6.294,11.877Z" fill="#e53516"/>
        </g>
        <g id="Group_88" data-name="Group 88">
          <path id="Path_102" data-name="Path 102" d="M1414.217,3800.8a.28.28,0,0,0-.051-.061.243.243,0,0,1,.061.091A.037.037,0,0,0,1414.217,3800.8Z" fill="#e53516"/>
          <path id="Path_103" data-name="Path 103" d="M1414.217,3800.8a.28.28,0,0,0-.051-.061.243.243,0,0,1,.061.091A.037.037,0,0,0,1414.217,3800.8Z" fill="#592c26"/>
        </g>
      </g>
    </g>
  </g>
</svg>
